<svg xmlns="http://www.w3.org/2000/svg" version="1.1" xmlns:xlink="http://www.w3.org/1999/xlink" xmlns:svgjs="http://svgjs.dev/svgjs" width="1500" height="1500" viewBox="0 0 1500 1500"><rect width="1500" height="1500" fill="#ffffff"></rect><g transform="matrix(0.6666666666666666,0,0,0.6666666666666666,249.3939393939396,651.1685231460744)"><svg viewBox="0 0 396 78" data-background-color="#ffffff" preserveAspectRatio="xMidYMid meet" height="295" width="1500" xmlns="http://www.w3.org/2000/svg" xmlns:xlink="http://www.w3.org/1999/xlink"><g id="tight-bounds" transform="matrix(1,0,0,1,0.23999999999992383,0.19756878613318918)"><svg viewBox="0 0 395.5199999999999 77.60486242773362" height="77.60486242773362" width="395.5199999999999"><g><svg viewBox="0 0 546.9738429165748 107.32157623156748" height="77.60486242773362" width="395.5199999999999"><g><rect width="7.003162446041552" height="78.04499574003276" x="126.11779448613123" y="14.638290245767358" fill="#000000" opacity="1" stroke-width="0" stroke="transparent" fill-opacity="1" class="rect-yte-0" data-fill-palette-color="secondary" rx="1%" id="yte-0" data-palette-color="#556970"></rect></g><g transform="matrix(1,0,0,1,151.45384291657476,14.832432026215194)"><svg viewBox="0 0 395.52000000000004 77.65671217913709" height="77.65671217913709" width="395.52000000000004"><g id="textblocktransform"><svg viewBox="0 0 395.52000000000004 77.65671217913709" height="77.65671217913709" width="395.52000000000004" id="textblock"><g><svg viewBox="0 0 395.52000000000004 77.65671217913709" height="77.65671217913709" width="395.52000000000004"><g transform="matrix(1,0,0,1,0,0)"><svg width="395.52000000000004" viewBox="2.4999999999999996 -35.5 183.08 35.95" height="77.65671217913709" data-palette-color="#111111"><path d="M2.5-33.45Q2.5-35.45 4.5-35.45L4.5-35.45 20.25-35.45Q22.25-35.45 22.25-33.45L22.25-33.45 22.25-32.9Q22.25-30.9 20.25-30.9L20.25-30.9 9.05-30.9Q7.05-30.9 7.05-28.9L7.05-28.9 7.05-20.4Q7.05-18.4 9.05-18.4L9.05-18.4 20.25-18.4Q22.25-18.4 22.25-16.4L22.25-16.4 22.25-15.85Q22.25-13.85 20.25-13.85L20.25-13.85 9.05-13.85Q7.05-13.85 7.05-11.85L7.05-11.85 7.05-1.55Q7.05 0.45 5.05 0.45L5.05 0.45 4.5 0.45Q2.5 0.45 2.5-1.55L2.5-1.55 2.5-33.45ZM42.1-21.65Q43.1-20.6 43.1-19.15L43.1-19.15 43.1-4.65Q43.1-3.2 42.1-2.15L42.1-2.15 40.5-0.55Q39.5 0.45 38.05 0.45L38.05 0.45 31.85 0.45Q30.4 0.45 29.4-0.55L29.4-0.55 27.75-2.2Q26.75-3.2 26.75-4.65L26.75-4.65 26.75-19.15Q26.75-20.6 27.75-21.6L27.75-21.6 29.4-23.25Q30.4-24.25 31.85-24.25L31.85-24.25 38.05-24.25Q39.5-24.25 40.5-23.25L40.5-23.25 42.1-21.65ZM38.55-17.7Q38.55-19.7 36.55-19.7L36.55-19.7 33.3-19.7Q31.3-19.7 31.3-17.7L31.3-17.7 31.3-6.1Q31.3-4.1 33.3-4.1L33.3-4.1 36.55-4.1Q38.55-4.1 38.55-6.1L38.55-6.1 38.55-17.7ZM53.14-1.6Q53.14 0.4 51.14 0.4L51.14 0.4 50.59 0.4Q48.59 0.4 48.59-1.6L48.59-1.6 48.59-19.15Q48.59-20.6 49.59-21.6L49.59-21.6 51.24-23.25Q52.24-24.25 53.7-24.25L53.7-24.25 54.59-24.25Q56.59-24.25 56.59-22.25L56.59-22.25 56.59-21.7Q56.59-19.7 54.89-19.7L54.89-19.7Q54.05-19.7 53.59-19.18 53.14-18.65 53.14-17.7L53.14-17.7 53.14-1.6ZM90.74-1.45Q90.59 0.45 88.64 0.45L88.64 0.45 87.94 0.45Q86.24 0.45 85.64-1.15L85.64-1.15 81.84-11.6Q81.39-12.95 80.54-12.95L80.54-12.95Q79.79-12.95 79.24-11.6L79.24-11.6 75.49-1.15Q74.89 0.45 73.19 0.45L73.19 0.45 72.39 0.45Q70.44 0.45 70.29-1.45L70.29-1.45 67.09-33.4Q66.99-34.4 67.49-34.95 67.99-35.5 68.99-35.5L68.99-35.5 69.54-35.5Q71.39-35.5 71.64-33.6L71.64-33.6 73.54-16.25Q73.59-15.5 73.92-15.08 74.24-14.65 74.69-14.65L74.69-14.65Q75.04-14.65 75.39-15 75.74-15.35 75.99-15.95L75.99-15.95 77.89-21.1Q78.49-22.7 80.19-22.7L80.19-22.7 80.84-22.7Q82.54-22.7 83.14-21.1L83.14-21.1 85.04-16.05Q85.29-15.45 85.64-15.1 85.99-14.75 86.34-14.75L86.34-14.75Q86.79-14.75 87.12-15.18 87.44-15.6 87.49-16.35L87.49-16.35 89.39-33.6Q89.64-35.5 91.49-35.5L91.49-35.5 92.04-35.5Q93.04-35.5 93.54-34.95 94.04-34.4 93.94-33.4L93.94-33.4 90.74-1.45ZM102.49-1.6Q102.49 0.4 100.49 0.4L100.49 0.4 99.94 0.4Q97.94 0.4 97.94-1.6L97.94-1.6 97.94-19.15Q97.94-20.6 98.94-21.6L98.94-21.6 100.59-23.25Q101.59-24.25 103.04-24.25L103.04-24.25 103.94-24.25Q105.94-24.25 105.94-22.25L105.94-22.25 105.94-21.7Q105.94-19.7 104.24-19.7L104.24-19.7Q103.39-19.7 102.94-19.18 102.49-18.65 102.49-17.7L102.49-17.7 102.49-1.6ZM110.19-30.85Q110.94-31.6 111.73-31.6L111.73-31.6Q112.53-31.6 113.28-30.85L113.28-30.85Q114.03-30.1 114.03-29.3L114.03-29.3Q114.03-28.5 113.28-27.75L113.28-27.75Q112.53-27 111.73-27L111.73-27Q110.94-27 110.19-27.75L110.19-27.75Q109.44-28.5 109.44-29.3L109.44-29.3Q109.44-30.1 110.19-30.85L110.19-30.85ZM109.48-22.25Q109.48-24.25 111.48-24.25L111.48-24.25 111.98-24.25Q113.98-24.25 113.98-22.25L113.98-22.25 113.98-1.55Q113.98 0.45 111.98 0.45L111.98 0.45 111.48 0.45Q109.48 0.45 109.48-1.55L109.48-1.55 109.48-22.25ZM131.03-4.1Q133.03-4.1 133.03-2.1L133.03-2.1 133.03-1.55Q133.03 0.45 131.03 0.45L131.03 0.45 127.58 0.45Q126.13 0.45 125.13-0.55L125.13-0.55 123.48-2.2Q122.48-3.2 122.48-4.65L122.48-4.65 122.48-17.75Q122.48-18.7 121.98-19.23 121.48-19.75 120.53-19.75L120.53-19.75Q118.53-19.75 118.53-21.75L118.53-21.75 118.53-22.25Q118.53-23.2 119.06-23.73 119.58-24.25 120.53-24.25L120.53-24.25Q121.48-24.25 121.98-24.78 122.48-25.3 122.48-26.25L122.48-26.25 122.48-28.05Q122.48-30.05 124.48-30.05L124.48-30.05 125.03-30.05Q127.03-30.05 127.03-28.05L127.03-28.05 127.03-26.25Q127.03-24.25 129.03-24.25L129.03-24.25 131.03-24.25Q133.03-24.25 133.03-22.25L133.03-22.25 133.03-21.75Q133.03-19.75 131.03-19.75L131.03-19.75 129.03-19.75Q127.03-19.75 127.03-17.75L127.03-17.75 127.03-6.1Q127.03-4.1 129.03-4.1L129.03-4.1 131.03-4.1ZM152.78-10.85Q152.78-8.85 150.78-8.85L150.78-8.85 143.08-8.85Q141.08-8.85 141.08-6.85L141.08-6.85 141.08-6.15Q141.08-4.15 143.08-4.15L143.08-4.15 150.78-4.15Q152.78-4.15 152.78-2.15L152.78-2.15 152.78-1.6Q152.78 0.4 150.78 0.4L150.78 0.4 141.58 0.4Q140.13 0.4 139.13-0.65L139.13-0.65 137.53-2.25Q136.53-3.25 136.53-4.7L136.53-4.7 136.53-19.2Q136.53-20.65 137.53-21.65L137.53-21.65 139.13-23.25Q140.13-24.25 141.58-24.25L141.58-24.25 147.73-24.25Q149.18-24.25 150.18-23.25L150.18-23.25 151.78-21.65Q152.78-20.65 152.78-19.2L152.78-19.2 152.78-10.85ZM141.08-14.85Q141.08-12.85 143.08-12.85L143.08-12.85 146.23-12.85Q148.23-12.85 148.23-14.85L148.23-14.85 148.23-17.75Q148.23-19.75 146.23-19.75L146.23-19.75 143.08-19.75Q141.08-19.75 141.08-17.75L141.08-17.75 141.08-14.85ZM162.83-1.6Q162.83 0.4 160.83 0.4L160.83 0.4 160.28 0.4Q158.28 0.4 158.28-1.6L158.28-1.6 158.28-19.15Q158.28-20.6 159.28-21.6L159.28-21.6 160.93-23.25Q161.93-24.25 163.38-24.25L163.38-24.25 164.28-24.25Q166.28-24.25 166.28-22.25L166.28-22.25 166.28-21.7Q166.28-19.7 164.58-19.7L164.58-19.7Q163.73-19.7 163.28-19.18 162.83-18.65 162.83-17.7L162.83-17.7 162.83-1.6ZM183.03-17.1Q182.08-17.1 181.55-17.45 181.03-17.8 181.03-18.45L181.03-18.45Q181.03-19.05 180.5-19.4 179.97-19.75 179.03-19.75L179.03-19.75 175.83-19.75Q173.83-19.75 173.83-17.75L173.83-17.75 173.83-15.7Q173.83-13.7 175.83-13.7L175.83-13.7 180.47-13.7Q181.93-13.7 182.93-12.7L182.93-12.7 184.58-11.05Q185.58-10.05 185.58-8.6L185.58-8.6 185.58-4.65Q185.58-3.2 184.58-2.2L184.58-2.2 182.93-0.55Q181.93 0.45 180.47 0.45L180.47 0.45 174.38 0.45Q172.93 0.45 171.93-0.55L171.93-0.55 170.28-2.2Q169.28-3.2 169.28-4.65L169.28-4.65 169.28-4.7Q169.28-6.7 171.28-6.7L171.28-6.7 171.83-6.7Q172.78-6.7 173.3-6.35 173.83-6 173.83-5.4L173.83-5.4Q173.83-4.8 174.35-4.45 174.88-4.1 175.83-4.1L175.83-4.1 179.03-4.1Q181.03-4.1 181.03-6.1L181.03-6.1 181.03-7.6Q181.03-9.6 179.03-9.6L179.03-9.6 174.33-9.6Q173.58-9.6 173.03-9.83 172.47-10.05 171.88-10.55L171.88-10.55 170.38-11.85Q169.78-12.35 169.53-12.93 169.28-13.5 169.28-14.3L169.28-14.3 169.28-19.2Q169.28-19.95 169.53-20.53 169.78-21.1 170.33-21.65L170.33-21.65 171.93-23.25Q172.93-24.25 174.38-24.25L174.38-24.25 180.47-24.25Q181.97-24.25 182.97-23.25L182.97-23.25 184.58-21.65Q185.58-20.65 185.58-19.2L185.58-19.2 185.58-19.1Q185.58-17.1 183.58-17.1L183.58-17.1 183.03-17.1Z" opacity="1" transform="matrix(1,0,0,1,0,0)" fill="#000000" class="wordmark-text-0" data-fill-palette-color="primary" id="text-0"></path></svg></g></svg></g></svg></g></svg></g><g><svg viewBox="0 0 107.78490850172926 107.32157623156748" height="107.32157623156748" width="107.78490850172926"><g><svg xmlns="http://www.w3.org/2000/svg" xmlns:xlink="http://www.w3.org/1999/xlink" version="1.1" x="8" y="0" viewBox="7.566 0.366 76.34490192776681 89.268" enable-background="new 0 0 90 90" xml:space="preserve" height="107.32157623156748" width="91.78490850172926" class="icon-icon-0" data-fill-palette-color="accent" id="icon-0"><g fill="#d51ba3" data-fill-palette-color="accent"><path d="M15.565 19.198A2.4 2.4 0 0 1 13.17 16.803 2.4 2.4 0 0 1 15.565 14.405 2.4 2.4 0 0 1 17.962 16.803 2.4 2.4 0 0 1 15.565 19.198M15.565 16.375A0.427 0.427 0 1 0 15.568 17.228 0.427 0.427 0 0 0 15.565 16.375" fill="#000000" data-fill-palette-color="accent"></path></g><g fill="#d51ba3" data-fill-palette-color="accent"><path d="M15.565 49.466A2.4 2.4 0 0 1 13.17 47.068 2.4 2.4 0 0 1 15.565 44.674 2.4 2.4 0 0 1 17.962 47.068 2.4 2.4 0 0 1 15.565 49.466M15.565 46.643A0.428 0.428 0 0 0 15.565 47.498 0.43 0.43 0 0 0 15.992 47.068 0.425 0.425 0 0 0 15.565 46.643" fill="#000000" data-fill-palette-color="accent"></path></g><g fill="#d51ba3" data-fill-palette-color="accent"><path d="M15.565 79.734A2.397 2.397 0 0 1 13.17 77.34 2.4 2.4 0 0 1 15.565 74.942 2.4 2.4 0 0 1 17.962 77.34 2.397 2.397 0 0 1 15.565 79.734M15.565 76.911A0.428 0.428 0 0 0 15.565 77.766 0.428 0.428 0 0 0 15.565 76.911" fill="#000000" data-fill-palette-color="accent"></path></g><g fill="#d51ba3" data-fill-palette-color="accent"><path d="M52.095 53.77A1.477 1.477 0 0 1 51.069 51.231L80.579 22.718C80.818 22.488 80.952 22.181 80.958 21.853A1.22 1.22 0 0 0 80.612 20.974L75 15.172A1.237 1.237 0 0 0 73.254 15.142L43.745 43.655A1.476 1.476 0 1 1 41.693 41.531L71.203 13.014A4.195 4.195 0 0 1 77.123 13.118L82.734 18.92A4.16 4.16 0 0 1 83.91 21.906 4.16 4.16 0 0 1 82.628 24.844L53.121 53.355A1.47 1.47 0 0 1 52.095 53.77" fill="#000000" data-fill-palette-color="accent"></path></g><g fill="#d51ba3" data-fill-palette-color="accent"><path d="M43.139 57.824C40.789 57.824 39.128 57.295 38.202 56.251 35.897 53.667 37.135 47.26 38.578 44.632 38.907 44.035 39.525 43.679 40.231 43.679 43.038 43.679 50.206 51.515 50.836 54.027 51.137 55.225 50.571 56.012 49.941 56.35 48.305 57.231 45.57 57.824 43.139 57.824M40.762 46.937C39.788 49.447 39.54 53.313 40.409 54.288 40.59 54.492 41.388 54.871 43.139 54.871 44.675 54.871 46.433 54.57 47.695 54.118 46.593 52.209 42.652 48.13 40.762 46.937" fill="#000000" data-fill-palette-color="accent"></path></g><g fill="#d51ba3" data-fill-palette-color="accent"><path d="M52.413 52.18C51.803 52.18 51.088 52.023 50.469 51.381 49.482 50.36 49.734 49.136 49.869 48.479L49.892 48.368 49.783 48.387C49.121 48.502 47.888 48.714 46.899 47.689 45.912 46.667 46.166 45.445 46.303 44.789L46.323 44.691 46.229 44.707C45.57 44.824 44.338 45.039 43.351 44.016 42.361 42.994 42.617 41.77 42.755 41.113 42.786 40.963 42.834 40.737 42.829 40.659 42.831 40.707 42.868 40.809 42.927 40.87L45.049 38.815C46.039 39.837 45.783 41.059 45.646 41.716L45.626 41.813 45.72 41.796C46.381 41.68 47.612 41.464 48.598 42.489 49.586 43.51 49.331 44.732 49.195 45.389L49.174 45.493 49.282 45.475C49.941 45.36 51.171 45.149 52.16 46.169 53.149 47.194 52.897 48.417 52.762 49.074 52.755 49.109 52.746 49.148 52.739 49.189L52.854 49.169C53.516 49.058 54.748 48.846 55.735 49.868L53.611 51.921A0.4 0.4 0 0 0 53.812 52.023 4 4 0 0 0 53.352 52.082C53.104 52.124 52.776 52.18 52.413 52.18" fill="#000000" data-fill-palette-color="accent"></path></g><g fill="#d51ba3" data-fill-palette-color="accent"><g fill="#d51ba3" data-fill-palette-color="accent"><path d="M42.88 37.612H22.654A1.41 1.41 0 0 0 21.243 39.022C21.243 39.801 21.875 40.435 22.654 40.435H40.055z" fill="#000000" data-fill-palette-color="accent"></path></g></g><g fill="#d51ba3" data-fill-palette-color="accent"><g fill="#d51ba3" data-fill-palette-color="accent"><path d="M42.88 58.899H22.654A1.412 1.412 0 0 0 22.654 61.724H40.055z" fill="#000000" data-fill-palette-color="accent"></path></g></g><g fill="#d51ba3" data-fill-palette-color="accent"><g fill="#d51ba3" data-fill-palette-color="accent"><path d="M54.228 26.258H22.512A1.412 1.412 0 1 0 22.512 29.083H51.406z" fill="#000000" data-fill-palette-color="accent"></path></g></g><g fill="#d51ba3" data-fill-palette-color="accent"><g fill="#d51ba3" data-fill-palette-color="accent"><path d="M65.583 14.91H22.654A1.412 1.412 0 0 0 22.654 17.734H62.759z" fill="#000000" data-fill-palette-color="accent"></path></g></g><g fill="#d51ba3" data-fill-palette-color="accent"><g fill="#d51ba3" data-fill-palette-color="accent"><path d="M35.059 48.961H22.654A1.413 1.413 0 0 0 22.654 51.788H34.805C34.806 50.855 34.894 49.894 35.059 48.961" fill="#000000" data-fill-palette-color="accent"></path></g></g><g fill="#d51ba3" data-fill-palette-color="accent"><g fill="#d51ba3" data-fill-palette-color="accent"><path d="M69.951 48.961H61.048L58.222 51.788H69.951A1.413 1.413 0 0 0 69.951 48.961" fill="#000000" data-fill-palette-color="accent"></path></g></g><g fill="#d51ba3" data-fill-palette-color="accent"><g fill="#d51ba3" data-fill-palette-color="accent"><path d="M76.586 85.628C76.586 86.284 76.007 86.813 75.29 86.813H11.686C10.971 86.813 10.388 86.285 10.388 85.628V4.37C10.388 3.719 10.971 3.19 11.686 3.19H75.29C76.007 3.19 76.586 3.718 76.586 4.37V9.684L76.625 9.647 79.41 12.434V4.37C79.41 2.164 77.562 0.366 75.29 0.366H11.686C9.415 0.366 7.566 2.164 7.566 4.37V85.628C7.566 87.836 9.416 89.634 11.686 89.634H75.29C77.562 89.634 79.41 87.836 79.41 85.628V30.599L76.586 33.422z" fill="#000000" data-fill-palette-color="accent"></path></g></g></svg></g></svg></g></svg></g><defs></defs></svg><rect width="395.5199999999999" height="77.60486242773362" fill="none" stroke="none" visibility="hidden"></rect></g></svg></g></svg>